<svg xmlns="http://www.w3.org/2000/svg" xmlns:xlink="http://www.w3.org/1999/xlink" width="21.59" height="17.299" viewBox="0 0 44.481 43.307">
  <defs>
    <linearGradient id="linear-gradient" x1="0.5" x2="0.5" y2="1" gradientUnits="objectBoundingBox">
      <stop offset="0" stop-color="#f6931d"/>
      <stop offset="1" stop-color="#7b4a0f"/>
    </linearGradient>
  </defs>
  <path id="logo-github" d="M24.448,2.25a22.2,22.2,0,0,0-7.025,43.256c1.109.206,1.586-.475,1.586-1.063V40.67c-6.168,1.332-7.469-2.981-7.469-2.981a5.883,5.883,0,0,0-2.569-3.25c-2.014-1.364.159-1.347.159-1.347a4.662,4.662,0,0,1,3.394,2.3,4.757,4.757,0,0,0,6.469,1.839,4.646,4.646,0,0,1,1.4-2.965c-4.916-.571-10.1-2.474-10.1-10.973a8.562,8.562,0,0,1,2.283-5.962,7.928,7.928,0,0,1,.223-5.868s1.855-.6,6.1,2.268a21.089,21.089,0,0,1,11.1,0c4.234-2.87,6.089-2.268,6.089-2.268a7.928,7.928,0,0,1,.223,5.868,8.562,8.562,0,0,1,2.283,5.962c0,8.531-5.185,10.4-10.132,10.957a5.28,5.28,0,0,1,1.507,4.107v6.089c0,.73.4,1.284,1.586,1.063a22.2,22.2,0,0,0-7.1-43.257Z" transform="translate(-2.25 -2.25)" fill-rule="evenodd" fill="url(#linear-gradient)"/>
</svg>
