<svg xmlns="http://www.w3.org/2000/svg" xmlns:xlink="http://www.w3.org/1999/xlink" width="21.59" height="17.299" viewBox="0 0 21.59 17.299">
  <defs>
    <linearGradient id="linear-gradient" x1="0.5" x2="0.5" y2="1" gradientUnits="objectBoundingBox">
      <stop offset="0" stop-color="#f6931d"/>
      <stop offset="1" stop-color="#7b4a0f"/>
    </linearGradient>
  </defs>
  <path id="Path_94276" data-name="Path 94276" d="M670.921,83.819c-.466-.089-.937-.146-1.389-.27a4.929,4.929,0,0,1-2.81-1.786c-.116-.158-.27-.333-.167-.54s.342-.15.537-.149c.725,0,1.45.013,2.175.009a.612.612,0,0,0,.329-.127c-.38-.13-.768-.238-1.137-.394a5.171,5.171,0,0,1-2.7-2.245,2.944,2.944,0,0,1-.264-.681.426.426,0,0,1,.076-.366.446.446,0,0,1,.378,0,3.119,3.119,0,0,0,1.327.324c.37-.008.74-.058,1.109-.089l-.005-.06c-.354-.233-.721-.448-1.059-.7a4.374,4.374,0,0,1-1.8-2.548,6.383,6.383,0,0,1,.091-2.6c.057-.291.325-.345.539-.12s.422.485.639.722a10.779,10.779,0,0,0,3.9,2.806,9.143,9.143,0,0,0,3.2.653c.2.006.229-.069.224-.24a4.952,4.952,0,0,1,.914-3.135,4.854,4.854,0,0,1,7.194-.783.376.376,0,0,0,.45.082q1.108-.47,2.212-.947c.225-.1.44-.213.662-.317.136-.064.281-.113.4.03s.054.275-.03.4a7.691,7.691,0,0,1-2.022,2.076c-.081.058-.162.116-.242.175-.01.008-.014.025-.05.1.337-.091.635-.161.927-.253.371-.118.734-.263,1.107-.376a.944.944,0,0,1,.331.024c-.023.118-.008.27-.076.349a8.384,8.384,0,0,1-.77.785c-.367.324-.752.628-1.138.928a.345.345,0,0,0-.151.328,11.913,11.913,0,0,1-8.08,11.941,14.234,14.234,0,0,1-7.2.474,13.715,13.715,0,0,1-3.783-1.149.5.5,0,0,1-.336-.58c.031-.088.207-.167.325-.177.648-.053,1.3-.058,1.946-.127a9.112,9.112,0,0,0,3.914-1.2c.1-.06.189-.13.282-.2A.153.153,0,0,0,670.921,83.819Z" transform="translate(-664.409 -70.251)" fill="url(#linear-gradient)"/>
</svg>
